<svg width="1024" height="576" viewBox="0 0 1024 576" fill="none" xmlns="http://www.w3.org/2000/svg">
<g clip-path="url(#clip0_840_1810)">
<rect width="1024" height="576" fill="white"/>
<rect width="1024" height="576" fill="#423D80"/>
<rect width="1024" height="576" fill="#8CD9FF"/>
<path d="M0 0H1024V576H0V0Z" fill="#8C6EF7"/>
<path d="M0 0H1024V576H0V0Z" fill="#8CD9FF"/>
<path d="M1058.36 123.571H716.333C777.804 114.114 790.886 49.4914 827.453 46.3391C873.162 42.3986 888.924 94.4121 915.718 102.293C942.513 110.174 955.911 83.3789 987.434 83.3789C1012.65 83.3789 1010.29 112.538 1058.36 123.571Z" fill="#E8FAFD"/>
<path d="M1140.94 398.446C1005.82 274.139 880.162 371.423 870.704 578.152L1290.92 599.771L1326.05 220.092C1282.81 194.419 1188.2 265.236 1140.94 398.446Z" fill="#29CC7A"/>
<path d="M-17.8919 390.644C-46.9262 221.732 -90.2134 188.78 -176.419 150.59V589.936H303.691L297.143 444.87C244.301 306.725 171.87 271.19 88.2349 372.195C60.3685 339.309 23.2571 328.448 -17.8919 390.644Z" fill="#29CC7A"/>
<path d="M221.14 477.322C234.408 450.698 241.128 430.036 229.681 398.337L202.162 409.428C217.354 429.798 223.864 445.234 211.944 473.434L221.14 477.322Z" fill="#FF860D"/>
<path d="M231.172 401.974L212.276 410.742L207.038 413.739C206.587 417.866 210.792 419.873 213.773 423.081C217.47 427.058 217.623 434.968 217.016 437.651C214.416 429.047 208.248 420.583 200.789 412.9C198.291 410.327 198.984 405.987 202.251 404.507L227.715 392.967C232.05 392.566 235.073 399.18 231.172 401.974Z" fill="#FF860D"/>
<path d="M230.475 452.141C230.045 437.841 231.608 426.847 242.012 414.931C243.13 413.651 245.099 413.649 246.282 414.87L252.926 421.728C254.295 423.141 253.951 425.461 252.274 426.491C242.699 432.371 237.168 438.62 236.266 452.069C236.16 453.651 234.86 454.918 233.274 454.889C231.758 454.861 230.52 453.657 230.475 452.141Z" fill="#FF860D"/>
<path d="M280.77 434.868C278.007 390.65 282.273 352.97 316.358 316.122L339.849 338.692C307.196 357.826 295.64 389.269 295.64 434.868H280.77Z" fill="#FFAB19"/>
<path d="M137.012 446.923C139.922 400.362 137.012 366.412 101.121 327.612L76.3857 351.377C110.769 371.525 121.354 398.907 121.354 446.923H137.012Z" fill="#FFAB19"/>
<path d="M283.665 468.828C287.432 433.532 293.953 408.439 325.832 383.922L346.375 412.757C318.011 423.476 301.546 434.814 295.41 470.829L283.665 468.828Z" fill="#FFAB19"/>
<path d="M133.137 450.232C125.835 426.326 117.236 409.177 93.0061 395.525C91.0315 394.412 88.5433 395.254 87.5776 397.304L79.5988 414.246C78.481 416.619 79.9189 419.403 82.4839 419.953C102.077 424.154 114.838 431.082 123.896 453.31C124.73 455.356 127.019 456.445 129.096 455.692L130.682 455.118C132.668 454.398 133.754 452.252 133.137 450.232Z" fill="#FFAB19"/>
<path fill-rule="evenodd" clip-rule="evenodd" d="M312.334 320.618L327.983 341.777L330.323 344.941C332.765 343.139 335.368 341.398 338.14 339.712L332.348 331.485L316.358 316.123C314.965 317.628 313.624 319.127 312.334 320.618Z" fill="#FF860D"/>
<path d="M375.756 399.622L279.199 267.572C321.856 243.921 361.134 236.742 408.014 248.144L388.346 396.411C387.516 402.667 379.481 404.717 375.756 399.622Z" fill="#FFE75C"/>
<path d="M375.756 399.622L279.199 267.572C321.856 243.921 361.134 236.742 408.014 248.144L388.346 396.411C387.516 402.667 379.481 404.717 375.756 399.622Z" fill="url(#paint0_linear_840_1810)"/>
<path d="M408.812 251.124C355.885 240.477 327.138 248.105 280.761 270.573C278.852 271.498 276.537 270.791 275.496 268.942L267.699 255.089C266.74 253.386 267.147 251.229 268.735 250.089C297.479 229.461 365.959 214.969 410.98 229.128C412.604 229.639 413.67 231.159 413.67 232.862V247.182C413.67 249.731 411.311 251.627 408.812 251.124Z" fill="#FFAB19"/>
<circle cx="383.389" cy="267.17" r="15.6042" fill="#E94B5E"/>
<circle cx="362.907" cy="319.06" r="12.0339" fill="#E94B5E"/>
<path d="M359.015 376.679C362.335 374.209 364.538 370.521 365.139 366.426C365.74 362.331 364.69 358.166 362.22 354.845C359.75 351.525 356.061 349.322 351.967 348.721C347.872 348.12 343.707 349.17 340.386 351.64L349.701 364.16L359.015 376.679Z" fill="#E94B5E"/>
<path d="M285.436 437.1C285.436 392.111 264.023 343.45 238.669 329.534L209.694 348.406C236.382 348.406 273.591 395.352 273.591 437.1H285.436Z" fill="#FFAB19"/>
<path fill-rule="evenodd" clip-rule="evenodd" d="M99.3702 369.634C93.2825 362.838 85.708 356.841 76.383 351.377L101.118 327.612C108.55 335.646 114.567 343.472 119.412 351.245L99.3702 369.634Z" fill="#FFE75C"/>
<path fill-rule="evenodd" clip-rule="evenodd" d="M99.3702 369.634C93.2825 362.838 85.708 356.841 76.383 351.377L101.118 327.612C108.55 335.646 114.567 343.472 119.412 351.245L99.3702 369.634Z" fill="#FF860D"/>
<path d="M36.6899 420.565L157.228 309.971C120.026 278.427 82.9131 263.698 34.7079 265.703L24.9723 414.951C24.5615 421.249 32.0394 424.832 36.6899 420.565Z" fill="#FFE75C"/>
<path d="M36.6899 420.565L157.228 309.971C120.026 278.427 82.9131 263.698 34.7079 265.703L24.9723 414.951C24.5615 421.249 32.0394 424.832 36.6899 420.565Z" fill="url(#paint1_linear_840_1810)"/>
<path d="M33.343 268.469C87.3299 268.388 114.028 281.497 155.109 312.608C156.801 313.889 159.209 313.648 160.591 312.039L170.95 299.981C172.223 298.498 172.247 296.303 170.913 294.875C146.762 269.018 82.4442 241.402 35.5221 246.474C33.8293 246.657 32.4866 247.94 32.1533 249.609L29.3502 263.652C28.8512 266.152 30.7938 268.473 33.343 268.469Z" fill="#FFAB19"/>
<circle r="15.6042" transform="matrix(-0.980654 -0.195749 -0.195749 0.980654 55.1344 289.182)" fill="#E94B5E"/>
<circle r="16.4968" transform="matrix(-0.980654 -0.195749 -0.195749 0.980654 56.9767 364.762)" fill="#E94B5E"/>
<circle r="15.6042" transform="matrix(-0.980654 -0.195749 -0.195749 0.980654 104.891 319.471)" fill="#E94B5E"/>
<circle cx="323.689" cy="277.019" r="15.6042" fill="#E94B5E"/>
<path d="M356.979 400.589C359.442 396.783 361.009 386.933 359.442 376.41L371.531 393.201C368.397 395.888 367.502 397.679 370.188 409.097C372.875 420.514 369.964 425.664 365.711 424.992C361.457 424.32 364.815 416.932 365.711 409.097C366.606 401.261 363.024 400.589 361.233 404.171C359.442 407.753 354.516 404.395 356.979 400.589Z" fill="#FFCD27"/>
<path fill-rule="evenodd" clip-rule="evenodd" d="M245.679 334.173C235.482 338.631 226.555 344.032 218.795 350.019C216.068 349.213 213.362 348.788 210.716 348.788L239.53 330.105C241.627 331.256 243.679 332.617 245.679 334.173Z" fill="#FFD83D"/>
<path fill-rule="evenodd" clip-rule="evenodd" d="M245.679 334.173C235.482 338.631 226.555 344.032 218.795 350.019C216.068 349.213 213.362 348.788 210.716 348.788L239.53 330.105C241.627 331.256 243.679 332.617 245.679 334.173Z" fill="#FF860D"/>
<path d="M201.083 271.879C187.017 269.747 180.623 288.503 187.443 295.749C208.898 301.291 258.03 315.527 279.514 317.914C296.762 319.831 299.228 309.236 297.985 301.087C297.46 297.644 294.582 295.219 291.215 294.325C262.554 286.712 211.642 273.479 201.083 271.879Z" fill="#FFAB19"/>
<path d="M194.728 374.228C186.975 387.448 182.814 400.576 181.535 411.144C181.137 414.441 175.979 416.059 174.576 413.05C160.529 382.903 150.004 323.5 190.844 286.349C192.945 284.438 195.886 283.758 198.655 284.386L283.643 303.662C288.271 304.711 287.581 313.856 282.922 314.755C248.515 321.398 224.269 337.506 208.093 355.806C203.563 364.485 206.44 377.004 210.036 383.597C212.894 388.837 208.321 394.761 204.089 395.757C199.856 396.753 193.474 391.361 198.453 383.597C201.305 379.152 198.255 372.095 194.728 374.228Z" fill="#FFD83D"/>
<path d="M194.728 374.228C186.975 387.448 182.814 400.576 181.535 411.144C181.137 414.441 175.979 416.059 174.576 413.05C160.529 382.903 150.004 323.5 190.844 286.349C192.945 284.438 195.886 283.758 198.655 284.386L283.643 303.662C288.271 304.711 287.581 313.856 282.922 314.755C248.515 321.398 224.269 337.506 208.093 355.806C203.563 364.485 206.44 377.004 210.036 383.597C212.894 388.837 208.321 394.761 204.089 395.757C199.856 396.753 193.474 391.361 198.453 383.597C201.305 379.152 198.255 372.095 194.728 374.228Z" fill="url(#paint2_linear_840_1810)"/>
<ellipse cx="195.568" cy="300.562" rx="10.8695" ry="5.84313" fill="#E94B5E"/>
<ellipse cx="188.004" cy="322.206" rx="7.56601" ry="4.06726" fill="#E94B5E"/>
<ellipse cx="185.863" cy="352.665" rx="11.9791" ry="7.58079" fill="#E94B5E"/>
<ellipse cx="225.514" cy="318.144" rx="14.6722" ry="7.88734" fill="#E94B5E"/>
<path d="M322.003 386.621L335.368 407.58L338.709 413.959C336.511 418.398 330.994 417.714 325.934 419.024C319.661 420.648 314.425 428.502 313.311 431.59C321.765 424.344 333.987 419.719 346.957 416.802C350.456 416.015 352.208 411.985 350.253 408.979L331.267 379.786C327.166 376.597 319.876 381.305 322.003 386.621Z" fill="#FF860D"/>
<path fill-rule="evenodd" clip-rule="evenodd" d="M403.794 358.05C360.336 364.616 335.637 409.324 340.014 448.092H378.469C373.636 413.345 378.691 395.35 410.984 367.742L403.794 358.05ZM403.436 388.167C404.641 385.025 405.887 381.777 406.763 378.661C407.567 382.392 409.011 386.273 410.372 389.93C413.888 399.377 416.846 407.328 406.763 407.328C396.087 407.328 399.551 398.296 403.436 388.167Z" fill="#8CD9FF"/>
<path fill-rule="evenodd" clip-rule="evenodd" d="M403.794 358.05C360.336 364.616 335.637 409.324 340.014 448.092H378.469C373.636 413.345 378.691 395.35 410.984 367.742L403.794 358.05ZM403.436 388.167C404.641 385.025 405.887 381.777 406.763 378.661C407.567 382.392 409.011 386.273 410.372 389.93C413.888 399.377 416.846 407.328 406.763 407.328C396.087 407.328 399.551 398.296 403.436 388.167Z" fill="url(#paint3_linear_840_1810)"/>
<path fill-rule="evenodd" clip-rule="evenodd" d="M403.794 358.05C360.336 364.616 335.637 409.324 340.014 448.092H378.469C373.636 413.345 378.691 395.35 410.984 367.742L403.794 358.05ZM403.436 388.167C404.641 385.025 405.887 381.777 406.763 378.661C407.567 382.392 409.011 386.273 410.372 389.93C413.888 399.377 416.846 407.328 406.763 407.328C396.087 407.328 399.551 398.296 403.436 388.167Z" fill="url(#paint4_linear_840_1810)"/>
<path d="M829.122 578.113C858.157 409.2 861.151 533.254 947.356 495.064L987.649 777.404H507.539L497.726 635.485C550.568 497.34 639.361 458.659 722.996 559.664C750.862 526.778 787.973 515.916 829.122 578.113Z" fill="#29CC7A"/>
<path d="M1058.08 581.093H831.439C849.4 539.848 890.976 528.038 917.827 539.848C950.833 495.01 974.984 495.01 1008.43 518.815C1014.92 461.656 1089.26 461.288 1156.21 495.01L1058.08 581.093Z" fill="#59250E"/>
<path d="M933.993 390.839C931.142 383.012 935.61 374.425 943.656 372.269C951.702 370.113 959.865 375.316 961.309 383.519L971.824 443.261L954.758 447.834L933.993 390.839Z" fill="#D11583"/>
<path d="M951.782 440.426L970.696 435.358L976.833 468.465L964.139 471.866L951.782 440.426Z" fill="#9598B1"/>
<path d="M936.884 482.707C936.123 479.864 937.81 476.942 940.652 476.181L998.886 460.577C1001.73 459.815 1004.65 461.502 1005.41 464.345L1017 507.598C1023.12 530.429 1015.25 554.722 996.897 569.622C973.558 565.892 954.593 548.792 948.475 525.962L936.884 482.707Z" fill="#ABADC3"/>
<path d="M936.885 482.707C936.123 479.864 937.81 476.942 940.653 476.181L998.886 460.577C1001.73 459.815 1004.65 461.502 1005.41 464.345L1017 507.598C1023.12 530.429 1015.25 554.722 996.898 569.622C973.559 565.892 954.593 548.792 948.476 525.962L936.885 482.707Z" fill="#9598B1"/>
<path d="M1031.16 553.396C1011.45 529.576 965.187 547.056 962.788 569.504L983.88 572.867H1003.92L1031.16 553.396Z" fill="#59250E"/>
<path d="M962.788 569.504C965.187 547.056 1011.45 529.576 1031.16 553.396" stroke="#471B0A" stroke-width="3" stroke-linecap="round"/>
<path d="M973.007 477.122L988.145 535.801" stroke="#686C8E" stroke-width="3" stroke-linecap="round"/>
<path d="M883.855 577.82C873.821 562.42 859.12 562.42 843.252 567.32C852.819 549.818 872.187 546.551 893.423 562.42C913.024 553.085 932.159 556.586 943.827 569.654C916.758 563.82 900.423 567.32 883.855 577.82Z" fill="#471B0A"/>
<path d="M320.209 121.597C328.489 145.951 372.854 154.886 394.002 156.309H-75.5361C-22.5673 151.43 -0.0402985 142.298 27.9664 113.682C56.1666 84.8692 60.8437 127.686 92.5033 131.339C124.163 134.992 96.7651 24.184 166.173 23.5751C235.58 22.9663 223.404 125.859 255.063 121.597C286.723 117.336 309.859 91.1554 320.209 121.597Z" fill="#E8FAFD"/>
<path d="M-13.5877 438.923C-13.5877 435.854 -11.2349 433.366 -8.33294 433.366H492.693C495.595 433.366 497.948 435.854 497.948 438.923C497.948 439.806 497.817 440.549 497.58 441.173C495.662 446.242 489.017 448.873 489.017 454.293C489.017 459.699 493.417 464.013 498.765 464.804C533.47 469.935 560.18 501.455 560.18 539.569C560.18 581.263 528.218 615.065 488.79 615.065H-4.4296C-43.857 615.065 -75.8193 581.263 -75.8193 539.569C-75.8193 501.455 -49.1102 469.935 -14.4049 464.804C-9.05638 464.013 -4.65615 459.699 -4.65615 454.293C-4.65615 448.873 -11.301 446.242 -13.2197 441.173C-13.4562 440.549 -13.5877 439.806 -13.5877 438.923Z" fill="#5865F2"/>
<path d="M-13.5877 438.923C-13.5877 435.854 -11.2349 433.366 -8.33294 433.366H492.693C495.595 433.366 497.948 435.854 497.948 438.923C497.948 439.806 497.817 440.549 497.58 441.173C495.662 446.242 489.017 448.873 489.017 454.293C489.017 459.699 493.417 464.013 498.765 464.804C533.47 469.935 560.18 501.455 560.18 539.569C560.18 581.263 528.218 615.065 488.79 615.065H-4.4296C-43.857 615.065 -75.8193 581.263 -75.8193 539.569C-75.8193 501.455 -49.1102 469.935 -14.4049 464.804C-9.05638 464.013 -4.65615 459.699 -4.65615 454.293C-4.65615 448.873 -11.301 446.242 -13.2197 441.173C-13.4562 440.549 -13.5877 439.806 -13.5877 438.923Z" fill="url(#paint5_linear_840_1810)"/>
<path d="M560.18 539.569C560.18 581.263 528.218 615.065 488.79 615.065H-4.4296C-43.857 615.065 -75.8193 581.263 -75.8193 539.569V625.698H560.18V539.569Z" fill="#5865F2"/>
<path d="M560.18 539.569C560.18 581.263 528.218 615.065 488.79 615.065H-4.4296C-43.857 615.065 -75.8193 581.263 -75.8193 539.569V625.698H560.18V539.569Z" fill="url(#paint6_linear_840_1810)"/>
<path d="M990.447 158.747L999.747 178.039L1019.04 187.338L999.747 196.638L990.447 215.929L981.147 196.638L961.856 187.338L981.147 178.039L990.447 158.747Z" fill="white"/>
<path d="M-33.0224 159.552L-17.6043 166.031L-2.18621 159.552L-8.66446 174.97L-2.18621 190.389L-17.6043 183.91L-33.0224 190.389L-26.5441 174.97L-33.0224 159.552Z" fill="white"/>
<path fill-rule="evenodd" clip-rule="evenodd" d="M490.875 449.525C490.154 450.454 489.573 451.434 489.263 452.525H258.417C257.589 452.525 256.917 451.853 256.917 451.025C256.917 450.196 257.589 449.525 258.417 449.525H490.875Z" fill="#3442D9"/>
<path d="M512.678 520.587V576.041" stroke="#2735CF" stroke-width="3" stroke-linecap="round"/>
<path d="M436.031 520.587V576.041" stroke="#2735CF" stroke-width="3" stroke-linecap="round"/>
<path d="M359.384 520.587V576.041" stroke="#2735CF" stroke-width="3" stroke-linecap="round"/>
<path d="M282.737 520.587V576.041" stroke="#2735CF" stroke-width="3" stroke-linecap="round"/>
<path d="M206.09 536.161V576.041" stroke="#2735CF" stroke-width="3" stroke-linecap="round"/>
<path d="M129.443 520.587V576.041" stroke="#2735CF" stroke-width="3" stroke-linecap="round"/>
<path d="M52.7964 520.587V576.041" stroke="#2735CF" stroke-width="3" stroke-linecap="round"/>
<path d="M116.418 200.364L129.443 205.836L142.469 200.364L136.996 213.389L142.469 226.414L129.443 220.941L116.418 226.414L121.891 213.389L116.418 200.364Z" fill="white"/>
<path d="M472.12 52.4283V65.0872" stroke="white" stroke-width="5" stroke-linecap="round"/>
<path d="M490.876 71.1851L478.217 71.1851" stroke="white" stroke-width="5" stroke-linecap="round"/>
<path d="M472.12 77.2818V89.9407" stroke="white" stroke-width="5" stroke-linecap="round"/>
<path d="M466.022 71.1851L453.363 71.1851" stroke="white" stroke-width="5" stroke-linecap="round"/>
<path d="M994.632 376.877V389.536" stroke="white" stroke-width="5" stroke-linecap="round"/>
<path d="M1013.39 395.634L1000.73 395.634" stroke="white" stroke-width="5" stroke-linecap="round"/>
<path d="M994.632 401.731V414.39" stroke="white" stroke-width="5" stroke-linecap="round"/>
<path d="M988.535 395.634L975.876 395.634" stroke="white" stroke-width="5" stroke-linecap="round"/>
<path d="M880.102 293.381C896.364 283.992 917.158 289.564 926.547 305.826L933.995 318.727L921.094 326.175C904.832 335.564 884.038 329.992 874.649 313.73L867.201 300.829L880.102 293.381Z" fill="#D11583"/>
<path d="M854.082 297.811C854.082 279.033 869.304 263.811 888.082 263.811H898.663V274.392C898.663 293.17 883.441 308.392 864.663 308.392H854.082V297.811Z" fill="#D11583"/>
<path d="M639.909 136.762C634.827 96.6447 663.228 60.0037 703.345 54.9215C743.462 49.8394 780.103 78.2406 785.185 118.357L787.263 134.762L641.987 153.166L639.909 136.762Z" fill="#FFE75C"/>
<path fill-rule="evenodd" clip-rule="evenodd" d="M639.324 128.454C639.361 131.2 639.553 133.972 639.906 136.761L641.984 153.166L787.26 134.762L785.182 118.357C784.836 115.627 784.344 112.952 783.715 110.337C756.268 105.181 660.311 117.099 639.324 128.454Z" fill="#EB459F"/>
<ellipse cx="721.345" cy="153.166" rx="186.768" ry="26.2518" transform="rotate(-7.21833 721.345 153.166)" fill="url(#paint7_linear_840_1810)"/>
<path d="M551.359 379.709L571.473 365.094C593.365 349.186 624.009 354.037 639.917 375.93L710.047 472.443L650.294 515.862L551.359 379.709Z" fill="#3442D9"/>
<path d="M659.177 312.479L841.906 289.547L884.263 515.404C890.606 549.226 864.659 580.492 830.247 580.492H675.518C641.147 580.492 615.21 549.296 621.484 515.502L659.177 312.479Z" fill="url(#paint8_linear_840_1810)"/>
<path d="M659.177 312.479L841.906 289.547L884.263 515.404C890.606 549.226 864.659 580.492 830.247 580.492H675.518C641.147 580.492 615.21 549.296 621.484 515.502L659.177 312.479Z" fill="url(#paint9_linear_840_1810)"/>
<path d="M877.075 329.336C868.535 308.461 844.69 298.461 823.815 307.001C802.941 315.541 792.941 339.386 801.481 360.261L815.076 393.493C826.665 421.82 831.619 452.422 829.56 482.957L829.39 485.488L809.931 496.551C801.915 501.109 799.111 511.302 803.669 519.318C808.227 527.334 818.42 530.138 826.436 525.581L828.347 524.494C832.089 541.844 846.933 555.354 865.526 556.608C888.029 558.125 907.501 541.112 909.018 518.609L911.051 488.451C913.947 445.485 906.976 402.425 890.67 362.568L877.075 329.336Z" fill="url(#paint10_linear_840_1810)"/>
<path d="M815.077 393.493C826.665 421.82 831.619 452.422 829.561 482.957L829.39 485.488L809.932 496.551C801.916 501.109 799.112 511.302 803.669 519.318C808.227 527.334 818.42 530.138 826.436 525.581L828.347 524.494M815.077 393.493C814.099 386.556 812.644 382.957 808.279 376.877M815.077 393.493C807.613 390.708 803.225 389.932 794.734 391.051M828.347 524.494C830.324 533.659 835.399 541.753 842.487 547.534C849.327 553.112 860.683 557.983 876.555 557.348M828.347 524.494C827.692 520.353 827.261 517.158 827.067 514.012" stroke="black" stroke-width="3" stroke-linecap="round"/>
<path d="M648.625 372.732L628.945 477.629" stroke="black" stroke-width="3" stroke-linecap="round"/>
<path d="M683.755 406.973C758.197 422.662 779.869 345.034 854.76 330.904C913.333 319.852 873.601 248.005 832.623 259.78C779.443 255.136 694.757 297.529 666.201 308.902C591.021 308.902 614.549 354.09 643.895 369.269C644.494 380.437 647.592 399.351 683.755 406.973Z" fill="url(#paint11_linear_840_1810)"/>
<path d="M831.437 281.381C794.723 327.216 747.101 344.226 703.203 334.776" stroke="#EB459F" stroke-width="3" stroke-linecap="round"/>
<path fill-rule="evenodd" clip-rule="evenodd" d="M644.198 373.016C649.664 374.6 656.264 375.46 663.268 375.554C677.267 375.74 693.141 372.86 705.101 366.262C705.827 365.862 706.09 364.95 705.69 364.224C705.29 363.499 704.377 363.235 703.652 363.635C692.274 369.912 676.953 372.735 663.308 372.554C656.497 372.463 650.168 371.625 645.016 370.13C644.644 370.022 644.279 369.911 643.922 369.797C643.983 370.815 644.068 371.893 644.198 373.016Z" fill="#EB459F"/>
<path fill-rule="evenodd" clip-rule="evenodd" d="M569.874 187.361C563.463 201.448 566.17 218.848 571.582 253.648C576.916 287.936 579.582 305.08 589.878 316.523C594.281 321.416 599.894 325.632 605.82 328.496C619.678 335.195 636.398 333.042 669.837 328.735C701.074 324.711 729.731 320.273 760.569 314.662C782.723 310.632 797.501 307.944 808.213 303.441L882.587 279.777C892.832 276.517 899.172 266.275 897.519 255.651L881.462 152.421C879.817 141.842 870.734 134.024 860.029 133.97L781.813 133.581C769.991 132.546 754.699 134.661 731.619 137.854C701.709 141.992 673.921 146.358 643.907 151.585C609.86 157.515 592.836 160.48 581.552 171.074C576.695 175.633 572.634 181.298 569.874 187.361Z" fill="#5865F2"/>
<path d="M836.097 167.945C835.824 166.185 837.029 164.536 838.789 164.262L861.55 160.721C875.762 158.511 889.074 168.24 891.285 182.451L897.771 224.15C899.981 238.361 890.252 251.674 876.041 253.884L853.28 257.424C851.52 257.698 849.87 256.493 849.597 254.733L836.097 167.945Z" fill="#5865F2"/>
<path d="M838.289 182.004L862.532 178.234C869.081 177.215 875.215 181.698 876.234 188.247L881.671 223.201C882.689 229.75 878.206 235.884 871.658 236.903L847.415 240.674L838.289 182.004Z" fill="#808AFF"/>
<path d="M628.792 215.126C628.098 210.664 631.149 206.486 635.611 205.791C639.361 205.208 644.142 204.464 649.35 203.654L723.851 192.066C729.059 191.256 733.84 190.512 737.591 189.929C742.052 189.236 746.228 192.29 746.922 196.751L754.183 243.435C756.994 261.507 744.623 278.435 726.551 281.246L673.865 289.442C655.793 292.252 638.864 279.881 636.053 261.809L628.792 215.126Z" fill="#808AFF"/>
<path d="M771.516 185.355C772.227 185.713 773.098 185.211 772.976 184.424C771.943 177.781 766.423 173.123 760.648 174.021C754.873 174.92 751.029 181.034 752.062 187.677C752.212 188.641 753.424 188.868 754.113 188.177C756.362 185.921 759.209 184.373 762.443 183.87C765.612 183.377 768.731 183.952 771.516 185.355Z" fill="black"/>
<path d="M615.192 209.458C615.694 209.747 616.335 209.377 616.246 208.804C615.212 202.161 609.693 197.503 603.918 198.402C598.143 199.3 594.299 205.414 595.332 212.057C595.417 212.605 596.108 212.759 596.482 212.35C598.801 209.816 601.828 208.072 605.301 207.531C608.784 206.99 612.207 207.738 615.192 209.458Z" fill="black"/>
<rect x="649.414" y="258.782" width="29.0497" height="12.5378" rx="6.26892" transform="rotate(-8.84114 649.414 258.782)" fill="#5865F2"/>
<rect x="691.652" y="252.213" width="29.0497" height="12.5378" rx="6.26892" transform="rotate(-8.84114 691.652 252.213)" fill="#5865F2"/>
<path d="M413.851 370.547C412.802 370.668 411.736 370.328 411.03 369.544L400.947 358.342C399.388 356.61 400.311 353.841 402.597 353.391L408.509 352.227C425.628 348.855 442.97 356.898 451.454 372.145L471.406 408.002C472.717 410.358 476.319 409.039 475.797 406.393L466.291 358.128C465.864 355.96 467.275 353.857 469.443 353.43L544.954 338.558C547.121 338.131 549.224 339.542 549.651 341.71L551.986 353.563C552.413 355.731 554.516 357.142 556.684 356.715L567.862 354.513C576.2 352.871 584.291 358.299 585.933 366.638L599.254 434.272C600.897 442.61 595.468 450.701 587.13 452.344L575.952 454.545C573.784 454.972 572.373 457.075 572.8 459.243L573.041 460.465C576.199 476.5 565.76 492.06 549.725 495.218L524.434 500.199C511.048 502.836 497.994 495.997 492.209 484.338L434.904 381.354C430.691 373.781 422.35 369.565 413.851 370.547Z" fill="#C4C4C4"/>
<path d="M413.851 370.547C412.802 370.668 411.736 370.328 411.03 369.544L400.947 358.342C399.388 356.61 400.311 353.841 402.597 353.391L408.509 352.227C425.628 348.855 442.97 356.898 451.454 372.145L471.406 408.002C472.717 410.358 476.319 409.039 475.797 406.393L466.291 358.128C465.864 355.96 467.275 353.857 469.443 353.43L544.954 338.558C547.121 338.131 549.224 339.542 549.651 341.71L551.986 353.563C552.413 355.731 554.516 357.142 556.684 356.715L567.862 354.513C576.2 352.871 584.291 358.299 585.933 366.638L599.254 434.272C600.897 442.61 595.468 450.701 587.13 452.344L575.952 454.545C573.784 454.972 572.373 457.075 572.8 459.243L573.041 460.465C576.199 476.5 565.76 492.06 549.725 495.218L524.434 500.199C511.048 502.836 497.994 495.997 492.209 484.338L434.904 381.354C430.691 373.781 422.35 369.565 413.851 370.547Z" fill="url(#paint12_linear_840_1810)"/>
<path d="M554.71 364.331L564.504 414.055" stroke="#DE5A00" stroke-width="3" stroke-linecap="round"/>
<path d="M556.675 383.294C554.754 373.54 561.103 364.076 570.857 362.155L587.375 358.901C599.296 356.553 610.863 364.314 613.211 376.235L620.551 413.502C622.899 425.423 615.138 436.99 603.217 439.338L586.699 442.592C576.946 444.513 567.481 438.163 565.56 428.409L556.675 383.294Z" fill="#5865F2"/>
<path fill-rule="evenodd" clip-rule="evenodd" d="M472.722 409.118C473.778 409.458 475.014 408.984 475.562 408.013L480.3 432.071C480.461 432.884 479.931 433.673 479.119 433.833C478.306 433.993 477.517 433.464 477.357 432.651L472.722 409.118Z" fill="#DE5A00"/>
<path opacity="0.2" d="M533.167 345.833L473.934 357.799L546.424 354.493C545.114 348.469 539.211 344.612 533.167 345.833Z" fill="white"/>
<path d="M853.284 257.425L876.045 253.885C890.256 251.674 899.985 238.362 897.775 224.15L891.289 182.452C889.078 168.24 875.766 158.512 861.554 160.722L838.793 164.262" stroke="black" stroke-width="3" stroke-linecap="round"/>
<path d="M475.473 454.217L515.675 430.69" stroke="black" stroke-width="3"/>
<path d="M512.714 423.095C511.927 428.078 515.599 435.596 523.64 434.984" stroke="black" stroke-width="3" stroke-linecap="round"/>
<ellipse cx="501.514" cy="383.489" rx="11.8562" ry="16.6019" transform="rotate(-8.43201 501.514 383.489)" fill="#E8FAFD"/>
<ellipse cx="507.175" cy="382.482" rx="5.1372" ry="7.54988" transform="rotate(-8.51152 507.175 382.482)" fill="black"/>
<path d="M512.372 365.413C503.968 356.646 492.235 362.721 490.245 371.654" stroke="#DE5A00" stroke-width="3" stroke-linecap="round"/>
<path d="M834.631 165.8C834.326 163.954 835.575 162.211 837.421 161.906L861.284 157.964C876.183 155.502 890.257 165.585 892.718 180.484L899.941 224.202C902.402 239.101 892.32 253.175 877.42 255.636L853.557 259.579C851.712 259.884 849.968 258.635 849.663 256.789L834.631 165.8Z" fill="url(#paint13_linear_840_1810)"/>
<path d="M837.864 185.241C837.592 183.607 838.696 182.061 840.33 181.789L863.373 177.948C869.911 176.858 876.093 181.275 877.183 187.812L883.487 225.634C884.577 232.171 880.161 238.354 873.624 239.443L850.58 243.284C848.946 243.557 847.4 242.452 847.128 240.818L837.864 185.241Z" fill="#808AFF"/>
<circle cx="761.889" cy="185.709" r="11.7987" fill="black"/>
<circle cx="605.775" cy="209.307" r="11.7987" fill="black"/>
<path d="M766.356 268.381C768.244 267.233 770.747 267.827 771.501 269.904C771.949 271.136 772.276 272.412 772.478 273.714C772.884 276.338 772.769 279.017 772.14 281.596C771.51 284.176 770.379 286.606 768.811 288.749C767.242 290.891 765.267 292.704 762.998 294.083C760.729 295.462 758.211 296.381 755.587 296.787C752.963 297.192 750.285 297.078 747.705 296.448C745.126 295.819 742.695 294.688 740.553 293.12C739.49 292.341 738.508 291.463 737.62 290.498C736.124 288.873 736.749 286.377 738.637 285.23L752.496 276.805L766.356 268.381Z" fill="black"/>
<path fill-rule="evenodd" clip-rule="evenodd" d="M758.711 296.045C755.263 292.92 753.098 288.405 753.098 283.385C753.098 280.402 753.862 277.598 755.206 275.157L766.354 268.381C768.242 267.233 770.746 267.827 771.5 269.904C771.947 271.136 772.275 272.412 772.476 273.714C772.882 276.338 772.767 279.017 772.138 281.596C771.509 284.176 770.378 286.606 768.809 288.749C767.241 290.891 765.266 292.704 762.997 294.083C761.647 294.904 760.208 295.561 758.711 296.045Z" fill="#F359AA"/>
<path d="M750.088 280.3L731.25 291.43" stroke="black" stroke-width="3" stroke-linecap="round"/>
<path d="M876.678 555.858L873.686 559.192L876.359 560.608L879.99 558.914L878.547 555.497L876.678 555.858Z" fill="#471B0A"/>
</g>
<defs>
<linearGradient id="paint0_linear_840_1810" x1="343.601" y1="242.834" x2="343.601" y2="413.703" gradientUnits="userSpaceOnUse">
<stop stop-color="#FFE75C"/>
<stop offset="1" stop-color="#FFC619"/>
</linearGradient>
<linearGradient id="paint1_linear_840_1810" x1="98.9144" y1="273.104" x2="65.467" y2="440.668" gradientUnits="userSpaceOnUse">
<stop stop-color="#FFE75C"/>
<stop offset="1" stop-color="#FFC619"/>
</linearGradient>
<linearGradient id="paint2_linear_840_1810" x1="224.422" y1="284.158" x2="224.422" y2="414.639" gradientUnits="userSpaceOnUse">
<stop stop-color="#FFE75C"/>
<stop offset="1" stop-color="#FFC619"/>
</linearGradient>
<linearGradient id="paint3_linear_840_1810" x1="376.593" y1="403.071" x2="376.596" y2="358.05" gradientUnits="userSpaceOnUse">
<stop stop-color="#66BCFF"/>
<stop offset="1" stop-color="#8CD9FF"/>
</linearGradient>
<linearGradient id="paint4_linear_840_1810" x1="376.596" y1="358.05" x2="376.596" y2="448.092" gradientUnits="userSpaceOnUse">
<stop stop-color="#66BCFF"/>
<stop offset="1" stop-color="#3F99F2"/>
</linearGradient>
<linearGradient id="paint5_linear_840_1810" x1="247.152" y1="433.366" x2="247.152" y2="625.698" gradientUnits="userSpaceOnUse">
<stop stop-color="#5865F2"/>
<stop offset="1" stop-color="#3442D9"/>
</linearGradient>
<linearGradient id="paint6_linear_840_1810" x1="247.152" y1="433.366" x2="247.152" y2="625.698" gradientUnits="userSpaceOnUse">
<stop stop-color="#5865F2"/>
<stop offset="1" stop-color="#3442D9"/>
</linearGradient>
<linearGradient id="paint7_linear_840_1810" x1="717.215" y1="114.917" x2="721.345" y2="179.418" gradientUnits="userSpaceOnUse">
<stop stop-color="#FFE251"/>
<stop offset="1" stop-color="#FFC81C"/>
</linearGradient>
<linearGradient id="paint8_linear_840_1810" x1="804.66" y1="386.981" x2="789.48" y2="699.428" gradientUnits="userSpaceOnUse">
<stop stop-color="#5865F2"/>
<stop offset="1" stop-color="#808AFF"/>
</linearGradient>
<linearGradient id="paint9_linear_840_1810" x1="752.931" y1="289.547" x2="752.931" y2="580.492" gradientUnits="userSpaceOnUse">
<stop stop-color="#5865F2"/>
<stop offset="1" stop-color="#3442D9"/>
</linearGradient>
<linearGradient id="paint10_linear_840_1810" x1="825.588" y1="359.657" x2="855.06" y2="556.702" gradientUnits="userSpaceOnUse">
<stop stop-color="#4F5CEC"/>
<stop offset="1" stop-color="#5865F2"/>
</linearGradient>
<linearGradient id="paint11_linear_840_1810" x1="900.088" y1="282.684" x2="689.526" y2="420.77" gradientUnits="userSpaceOnUse">
<stop stop-color="#EB459F"/>
<stop offset="1" stop-color="#FF78B9"/>
</linearGradient>
<linearGradient id="paint12_linear_840_1810" x1="519.385" y1="501.194" x2="487.001" y2="336.767" gradientUnits="userSpaceOnUse">
<stop stop-color="#ED5F00"/>
<stop offset="1" stop-color="#FF8C19"/>
</linearGradient>
<linearGradient id="paint13_linear_840_1810" x1="860.957" y1="144.548" x2="869.166" y2="280.541" gradientUnits="userSpaceOnUse">
<stop offset="0.0493513" stop-color="#5865F2"/>
<stop offset="0.803326" stop-color="#3543DA"/>
</linearGradient>
<clipPath id="clip0_840_1810">
<rect width="1024" height="576" fill="white"/>
</clipPath>
</defs>
</svg>
